<?xml version="1.0" encoding="utf-8"?>
<!-- Generator: Adobe Illustrator 25.2.1, SVG Export Plug-In . SVG Version: 6.00 Build 0)  -->
<svg version="1.1" id="Layer_1" xmlns:sketch="http://www.bohemiancoding.com/sketch/ns"
	 xmlns="http://www.w3.org/2000/svg" xmlns:xlink="http://www.w3.org/1999/xlink" width="100%" height="100%" x="0px" y="0px" viewBox="0 0 22 27.5"
	 style="enable-background:new 0 0 22 27.5;" xml:space="preserve">
<style type="text/css">
	.st0{fill-rule:evenodd;clip-rule:evenodd;fill:#FFC50B;}
</style>
<desc>Created with Sketch.</desc>
<g sketch:type="MSPage">
	<path sketch:type="MSShapeGroup" class="st0" d="M10,8.2V5.4L6.9,2.3c-0.4-0.4-0.4-1,0-1.4c0.4-0.4,1-0.4,1.4,0L10,2.6V1
		c0-0.6,0.4-1,1-1c0.6,0,1,0.4,1,1v1.6l1.7-1.7c0.4-0.4,1-0.4,1.4,0c0.4,0.4,0.4,1,0,1.4L12,5.4v2.8c0.4,0.1,0.7,0.3,1,0.6l2.4-1.4
		l1.1-4.3c0.1-0.5,0.7-0.8,1.2-0.7c0.5,0.1,0.9,0.7,0.7,1.2l-0.6,2.3l1.4-0.8c0.5-0.3,1.1-0.1,1.4,0.4c0.3,0.5,0.1,1.1-0.4,1.4
		l-1.4,0.8l2.3,0.6C21.7,8.4,22,9,21.8,9.5c-0.1,0.5-0.7,0.8-1.2,0.7l-4.3-1.1L14,10.5c0,0.2,0,0.3,0,0.5c0,0.2,0,0.4-0.1,0.6
		l2.4,1.4l4.3-1.1c0.5-0.1,1.1,0.2,1.2,0.7c0.1,0.5-0.2,1.1-0.7,1.2l-2.3,0.6l1.4,0.8c0.5,0.3,0.6,0.9,0.4,1.4
		c-0.3,0.5-0.9,0.6-1.4,0.4l-1.4-0.8l0.6,2.3c0.1,0.5-0.2,1.1-0.7,1.2c-0.5,0.1-1.1-0.2-1.2-0.7l-1.1-4.3l-2.4-1.4
		c-0.3,0.2-0.6,0.4-0.9,0.5v2.8l3.1,3.1c0.4,0.4,0.4,1,0,1.4c-0.4,0.4-1,0.4-1.4,0L12,19.5V21c0,0.6-0.4,1-1,1c-0.6,0-1-0.4-1-1
		v-1.6l-1.7,1.7c-0.4,0.4-1,0.4-1.4,0c-0.4-0.4-0.4-1,0-1.4l3.1-3.1v-2.8c-0.3-0.1-0.7-0.3-0.9-0.5l-2.4,1.4L5.5,19
		c-0.1,0.5-0.7,0.8-1.2,0.7c-0.5-0.1-0.9-0.7-0.7-1.2l0.6-2.3l-1.4,0.8c-0.5,0.3-1.1,0.1-1.4-0.4c-0.3-0.5-0.1-1.1,0.4-1.4l1.4-0.8
		l-2.3-0.6c-0.5-0.1-0.8-0.7-0.7-1.2c0.1-0.5,0.7-0.8,1.2-0.7L5.6,13l2.4-1.4C8,11.4,8,11.2,8,11c0-0.2,0-0.4,0-0.5L5.6,9.1
		l-4.3,1.1c-0.5,0.1-1.1-0.2-1.2-0.7C0,9,0.3,8.4,0.9,8.3l2.3-0.6L1.8,6.9C1.3,6.6,1.2,6,1.5,5.5C1.7,5,2.3,4.9,2.8,5.1l1.4,0.8
		L3.6,3.6C3.4,3.1,3.7,2.5,4.3,2.4c0.5-0.1,1.1,0.2,1.2,0.7l1.1,4.3L9,8.7C9.3,8.5,9.6,8.3,10,8.2z"/>
</g>
</svg>
