<svg id="LOGOS" xmlns="http://www.w3.org/2000/svg" viewBox="0 0 1000 1000"><defs><style>.cls-1{fill:#fff;}.cls-2{fill:#db3238;}.cls-3{fill:#00b262;}.cls-4{fill:#ffcb05;}.cls-5{fill:#a23293;}.cls-6{fill:#231f20;}</style></defs><path class="cls-1" d="M821.18,379.57c-9.76-28.28-25.3-51.33-33-62.74l-.43-.63a5.37,5.37,0,0,1-.93-3V241.12a29.77,29.77,0,0,0,5.5-17.31V204.38a30.12,30.12,0,0,0-30.08-30.07H708.78a30.11,30.11,0,0,0-30.08,30.07v19.43a29.86,29.86,0,0,0,5.5,17.31v72.07a5.37,5.37,0,0,1-.93,3l-1.41,2.08c-6.32,9.34-16.68,24.64-25.37,43.89-9.13-20.25-20-36.42-26-45.34l-.43-.63a5.36,5.36,0,0,1-.92-3V241.12a29.83,29.83,0,0,0,5.49-17.31V204.38a30.11,30.11,0,0,0-30.07-30.07H551A30.11,30.11,0,0,0,521,204.38v19.43a29.86,29.86,0,0,0,5.5,17.31v72.07a5.29,5.29,0,0,1-.93,3l-1.41,2.08c-6.32,9.34-16.68,24.64-25.36,43.89-9.14-20.25-20-36.42-26.05-45.34l-.44-.64a5.35,5.35,0,0,1-.92-3V241.12a29.84,29.84,0,0,0,5.5-17.31V204.38a30.12,30.12,0,0,0-30.08-30.07H393.29a30.11,30.11,0,0,0-30.08,30.07v19.43a29.85,29.85,0,0,0,5.49,17.31v72.07a5.36,5.36,0,0,1-.92,3l-1.41,2.08c-6.32,9.34-16.68,24.64-25.37,43.89-9.13-20.25-20-36.42-26.05-45.34l-.44-.64a5.43,5.43,0,0,1-.92-3V241.12a29.77,29.77,0,0,0,5.5-17.31V204.38A30.12,30.12,0,0,0,289,174.31H235.54a30.11,30.11,0,0,0-30.08,30.07v19.43a29.86,29.86,0,0,0,5.5,17.31v72.07a5.37,5.37,0,0,1-.93,3l-1.41,2.08c-7.75,11.45-23.47,34.67-32.81,62.94a35.57,35.57,0,0,0-16.91,30.32V765.48a35.67,35.67,0,0,0,35.64,35.63H805.46a35.67,35.67,0,0,0,35.64-35.63V411.54A35.86,35.86,0,0,0,821.18,379.57Z"/><polygon class="cls-2" points="506.59 394.88 546.59 321.46 546.59 242.03 609.25 242.03 609.25 321.46 645.92 394.88 506.59 394.88"/><polygon class="cls-3" points="348.84 394.88 388.84 321.46 388.84 242.03 451.51 242.03 451.51 321.46 488.17 394.88 348.84 394.88"/><polygon class="cls-4" points="191.09 394.88 231.09 321.46 231.09 242.03 293.76 242.03 293.76 321.46 330.43 394.88 191.09 394.88"/><polygon class="cls-5" points="664.33 394.88 704.33 321.46 704.33 242.03 767 242.03 767 321.46 803.67 394.88 664.33 394.88"/><path class="cls-6" d="M812.34,387.89c-9-28.58-24.94-52.56-33.27-64.91l-.43-.64a16.34,16.34,0,0,1-2.81-9.15v-76a19,19,0,0,0,5.5-13.37V204.38a19.1,19.1,0,0,0-19.08-19.07H708.78a19.1,19.1,0,0,0-19.08,19.07v19.43a19,19,0,0,0,5.5,13.37v76a16.26,16.26,0,0,1-2.81,9.15L691,324.45c-8.66,12.79-23.62,35.15-32.2,62.45h-4.49c-9-28.14-24.73-51.71-33-63.92l-.43-.64a16.33,16.33,0,0,1-2.8-9.15v-76a19,19,0,0,0,5.49-13.37V204.38a19.09,19.09,0,0,0-19.07-19.07H551A19.1,19.1,0,0,0,532,204.38v19.43a19,19,0,0,0,5.5,13.37v76a16.33,16.33,0,0,1-2.8,9.15l-1.43,2.11c-8.66,12.79-23.62,35.15-32.2,62.45h-4.48c-9-28.14-24.73-51.71-33-63.92l-.44-.64a16.33,16.33,0,0,1-2.8-9.15v-76a19,19,0,0,0,5.5-13.37V204.38a19.11,19.11,0,0,0-19.08-19.07H393.29a19.1,19.1,0,0,0-19.08,19.07v19.43a19,19,0,0,0,5.49,13.37v76a16.33,16.33,0,0,1-2.8,9.15l-1.42,2.11c-8.67,12.79-23.62,35.15-32.2,62.45h-4.49c-9-28.14-24.73-51.71-33-63.92l-.43-.64a16.34,16.34,0,0,1-2.81-9.15v-76a19,19,0,0,0,5.5-13.37V204.38A19.1,19.1,0,0,0,289,185.31H235.54a19.1,19.1,0,0,0-19.08,19.07v19.43a19,19,0,0,0,5.5,13.37v76a16.26,16.26,0,0,1-2.81,9.15l-1.42,2.11c-8.87,13.1-24.33,36.21-32.8,64.4a24.64,24.64,0,0,0-15,22.69V765.48a24.64,24.64,0,0,0,24.64,24.63H805.46a24.64,24.64,0,0,0,24.64-24.63V411.54A24.64,24.64,0,0,0,812.34,387.89ZM706.74,204.38a2,2,0,0,1,2-2h10.08v8.71a5.31,5.31,0,0,0,10.61,0v-8.71H741.4v8.71a5.3,5.3,0,1,0,10.6,0v-8.71h10.25a2,2,0,0,1,2,2v19.43a2,2,0,0,1-2,2H708.78a2,2,0,0,1-2-2ZM705.08,334l1.44-2.14a33.24,33.24,0,0,0,5.72-18.67V242.88h46.55v70.31a33.26,33.26,0,0,0,5.72,18.67l.43.64c7.21,10.7,20.7,30.76,29.23,54.4H676.62C684.73,364.12,697.53,345.15,705.08,334ZM549,204.38a2,2,0,0,1,2-2h10.08v8.71a5.31,5.31,0,0,0,10.61,0v-8.71h11.93v8.71a5.31,5.31,0,0,0,10.61,0v-8.71h10.25a2,2,0,0,1,2,2v19.43a2,2,0,0,1-2,2H551a2,2,0,0,1-2-2ZM547.34,334l1.44-2.14a33.23,33.23,0,0,0,5.71-18.67V242.88h46.56v70.31a33.25,33.25,0,0,0,5.71,18.67l.43.64c7.21,10.7,20.71,30.76,29.23,54.4H518.88C527,364.12,539.79,345.15,547.34,334ZM391.25,204.38a2,2,0,0,1,2-2h10.08v8.71a5.3,5.3,0,0,0,10.6,0v-8.71H425.9v8.71a5.31,5.31,0,0,0,10.61,0v-8.71h10.25a2,2,0,0,1,2,2v19.43a2,2,0,0,1-2,2H393.29a2,2,0,0,1-2-2ZM389.59,334l1.44-2.14a33.23,33.23,0,0,0,5.71-18.67V242.88H443.3v70.31A33.26,33.26,0,0,0,449,331.86l.43.64c7.21,10.7,20.7,30.76,29.23,54.4H361.13C369.24,364.12,382,345.15,389.59,334ZM233.5,204.38a2,2,0,0,1,2-2h10.08v8.71a5.31,5.31,0,0,0,10.61,0v-8.71h11.93v8.71a5.3,5.3,0,0,0,10.6,0v-8.71H289a2,2,0,0,1,2,2v19.43a2,2,0,0,1-2,2H235.54a2,2,0,0,1-2-2ZM231.84,334l1.44-2.14A33.24,33.24,0,0,0,239,313.19V242.88h46.55v70.31a33.26,33.26,0,0,0,5.72,18.67l.43.64c7.21,10.7,20.7,30.76,29.23,54.4H203.38C211.49,364.12,224.29,345.15,231.84,334ZM813.17,761a11.9,11.9,0,0,1-11.87,11.87H198.87A11.9,11.9,0,0,1,187,761V415.47a11.9,11.9,0,0,1,11.87-11.87H801.3a11.9,11.9,0,0,1,11.87,11.87Z"/><polygon class="cls-6" points="451.43 509.71 424.46 509.71 424.46 450.81 407.2 450.81 407.2 526.33 451.43 526.33 451.43 509.71"/><path class="cls-6" d="M488.56,527.84a39.27,39.27,0,1,0-39.27-39.27A38.93,38.93,0,0,0,488.56,527.84Zm0-61.7c12.29,0,22,8.95,22,22.43s-9.71,22.44-22,22.44-22-8.95-22-22.44S476.26,466.14,488.56,466.14Z"/><path class="cls-6" d="M559.68,511c-8.53,0-13.16-4.21-15.86-10.46l-14.89,8.63c4.21,11.11,14.35,18.66,30.21,18.66,16.39,0,28-8.63,28-23.19,0-16-12.83-20-24.27-23.41-11.76-3.56-13.59-5.94-13.59-9.39,0-3,2.7-5.71,8.09-5.71,6.91,0,10.46,3.34,13.05,8.73L585,466.35c-5.51-11.11-15.21-17-27.62-17-13,0-25.35,8.41-25.35,23s11,19.85,22.22,23,15.64,5,15.64,9.6C569.92,507.78,567.87,511,559.68,511Z"/><polygon class="cls-6" points="316.17 637.27 276.22 637.27 276.22 550.04 250.66 550.04 250.66 661.88 316.17 661.88 316.17 637.27"/><rect class="cls-6" x="324.14" y="550.04" width="25.56" height="111.84"/><polygon class="cls-6" points="357.68 574.65 386.44 574.65 386.44 661.88 412 661.88 412 574.65 440.76 574.65 440.76 550.04 357.68 550.04 357.68 574.65"/><path class="cls-6" d="M531.81,588.38A38.25,38.25,0,0,0,493.46,550H448.73V661.88h25.56V625.13h12.15l21.09,36.75H535l-23.8-41.06C523.5,614.59,531.81,602.12,531.81,588.38Zm-38.35,14.38H474.29V574h19.17c7,0,12.79,6.23,12.79,14.37S500.5,602.76,493.46,602.76Z"/><path class="cls-6" d="M537.38,606a58.16,58.16,0,1,0,58.15-58.16A57.66,57.66,0,0,0,537.38,606Zm58.15-33.23c18.22,0,32.6,13.26,32.6,33.23s-14.38,33.23-32.6,33.23S562.94,625.93,562.94,606,577.32,572.73,595.53,572.73Z"/><path class="cls-6" d="M700.8,639.19c-12.62,0-19.5-6.23-23.49-15.49l-22,12.78c6.23,16.45,21.25,27.64,44.74,27.64,24.28,0,41.54-12.78,41.54-34.35,0-23.65-19-29.56-35.95-34.67-17.41-5.28-20.13-8.79-20.13-13.9,0-4.48,4-8.47,12-8.47,10.23,0,15.5,4.95,19.33,12.94l21.57-12.62c-8.15-16.46-22.53-25.25-40.9-25.25-19.33,0-37.54,12.47-37.54,34,0,21.41,16.29,29.4,32.91,34,16.77,4.63,23.17,7.34,23.17,14.21C716,634.4,712.94,639.19,700.8,639.19Z"/><path class="cls-6" d="M262.33,686.63h-12.5v36h4.29V709.52h8.21a11.45,11.45,0,1,0,0-22.89Zm0,18.75h-8.21V690.77h8.21a7.31,7.31,0,0,1,0,14.61Z"/><path class="cls-6" d="M285.19,686.63l-14,36h4.56l3.33-8.71h16l3.33,8.71H303l-13.93-36Zm-4.46,23.11,6.4-16.72,6.41,16.72Z"/><path class="cls-6" d="M346,686.63,332.33,721.7l-8.2-13.87a10.95,10.95,0,0,0-3.86-21.2H305.91v36h4.29V708.54h9.48l8.23,14.05h8.63l3.33-8.71h16l3.32,8.71h4.56l-13.92-36ZM310.2,704.4V690.77h10.07a6.82,6.82,0,0,1,0,13.63Zm31.3,5.34L347.91,693l6.41,16.72Z"/><path class="cls-6" d="M380.4,686.63H366.68v36H380.4c9.69,0,17-7.73,17-18S390.09,686.63,380.4,686.63Zm0,31.82H371V690.77h9.44c7.4,0,12.77,5.82,12.77,13.84S387.8,718.45,380.4,718.45Z"/><path class="cls-6" d="M411.09,686.63l-14,36h4.55l3.33-8.71h16l3.32,8.71h4.56l-13.92-36Zm-4.46,23.11L413,693l6.41,16.72Z"/><polygon class="cls-6" points="449.16 706.53 464.83 706.53 464.83 702.39 449.16 702.39 449.16 690.77 466.05 690.77 466.05 686.63 444.87 686.63 444.87 722.59 466.3 722.59 466.3 718.45 449.16 718.45 449.16 706.53"/><path class="cls-6" d="M482.44,702.24c-5-1.64-7.79-2.74-7.79-6.2s2.77-5.76,6.89-5.76a8.16,8.16,0,0,1,8,5.4l.36.88,3.7-2.06-.29-.69a12.4,12.4,0,0,0-11.8-7.72c-6.61,0-11.22,4.13-11.22,10,0,6.53,5.49,8.32,11.46,10.26,5.6,1.78,8.27,3.21,8.27,6.53,0,3.76-2.9,6-7.77,6s-8.31-2.23-9.47-6.29l-.3-1-3.78,2.22.21.65c1.75,5.42,6.74,8.66,13.34,8.66,7.24,0,12.1-4.12,12.1-10.25C494.38,706.19,488.31,704.18,482.44,702.24Z"/><polygon class="cls-6" points="494.68 690.77 505.45 690.77 505.45 722.59 509.79 722.59 509.79 690.77 520.56 690.77 520.56 686.63 494.68 686.63 494.68 690.77"/><path class="cls-6" d="M564.3,686.63,550.67,721.7l-8.21-13.87a10.95,10.95,0,0,0-3.86-21.2H524.24v36h4.29V708.54H538l8.22,14.05h8.64l3.33-8.71h16l3.33,8.71h4.56l-13.92-36ZM528.53,704.4V690.77H538.6a6.82,6.82,0,0,1,0,13.63Zm31.31,5.34,6.4-16.72,6.41,16.72Z"/><polygon class="cls-6" points="579.44 690.77 590.21 690.77 590.21 722.59 594.54 722.59 594.54 690.77 605.31 690.77 605.31 686.63 579.44 686.63 579.44 690.77"/><polygon class="cls-6" points="613.28 706.53 628.94 706.53 628.94 702.39 613.28 702.39 613.28 690.77 630.17 690.77 630.17 686.63 608.99 686.63 608.99 722.59 630.41 722.59 630.41 718.45 613.28 718.45 613.28 706.53"/><polygon class="cls-6" points="620.36 684.89 626.02 676.98 620.97 676.98 615.99 684.89 620.36 684.89"/><path class="cls-6" d="M650.25,709.08h14.43c-.94,5.93-6,9.86-12.95,9.86-8.44,0-14.57-6-14.57-14.33a14,14,0,0,1,14.38-14.33A13.15,13.15,0,0,1,663.22,697l.42.79,3.78-2.25-.41-.72a17.75,17.75,0,0,0-15.47-8.7c-10.64,0-18.67,8-18.67,18.52s8.11,18.52,18.86,18.52c10.08,0,17.4-6.74,17.4-16v-2.17H650.25Z"/><rect class="cls-6" x="673.92" y="686.63" width="4.29" height="35.96"/><path class="cls-6" d="M713.88,711.42l-.41.78a13.21,13.21,0,0,1-11.73,6.74,14.33,14.33,0,1,1,0-28.66,13.2,13.2,0,0,1,11.64,6.6l.41.77,3.79-2.18-.42-.73a17.63,17.63,0,0,0-15.42-8.65c-10.64,0-18.67,8-18.67,18.52s8,18.52,18.67,18.52a17.61,17.61,0,0,0,15.53-8.81l.4-.73Z"/><path class="cls-6" d="M731.35,686.63l-14,36h4.56l3.32-8.71h16l3.33,8.71h4.55l-13.92-36Zm-4.46,23.11L733.3,693l6.41,16.72Z"/></svg>